<mxfile host="app.diagrams.net" modified="2023-12-12T11:38:48.295Z" agent="Mozilla/5.0 (Windows NT 10.0; Win64; x64) AppleWebKit/537.36 (KHTML, like Gecko) Chrome/119.0.0.0 Safari/537.36" etag="m_rF5-GYq-XBuou5-B-y" version="22.1.7" type="github">
  <diagram name="Страница — 1" id="GDBcYOqf5rA7OxoCmrTH">
    <mxGraphModel dx="1050" dy="565" grid="1" gridSize="10" guides="1" tooltips="1" connect="1" arrows="1" fold="1" page="1" pageScale="1" pageWidth="827" pageHeight="1169" math="0" shadow="0">
      <root>
        <mxCell id="0" />
        <mxCell id="1" parent="0" />
        <mxCell id="27TKcZGduy2nfsu9lEft-3" value="" style="edgeStyle=orthogonalEdgeStyle;rounded=0;orthogonalLoop=1;jettySize=auto;html=1;" edge="1" parent="1" source="27TKcZGduy2nfsu9lEft-1" target="27TKcZGduy2nfsu9lEft-2">
          <mxGeometry relative="1" as="geometry" />
        </mxCell>
        <mxCell id="27TKcZGduy2nfsu9lEft-1" value="Beginning" style="ellipse;whiteSpace=wrap;html=1;" vertex="1" parent="1">
          <mxGeometry x="354" y="40" width="120" height="40" as="geometry" />
        </mxCell>
        <mxCell id="27TKcZGduy2nfsu9lEft-5" value="" style="edgeStyle=orthogonalEdgeStyle;rounded=0;orthogonalLoop=1;jettySize=auto;html=1;" edge="1" parent="1" source="27TKcZGduy2nfsu9lEft-2" target="27TKcZGduy2nfsu9lEft-4">
          <mxGeometry relative="1" as="geometry" />
        </mxCell>
        <mxCell id="27TKcZGduy2nfsu9lEft-2" value="double y=0&lt;br&gt;int x=3" style="rounded=0;whiteSpace=wrap;html=1;" vertex="1" parent="1">
          <mxGeometry x="369" y="110" width="90" height="40" as="geometry" />
        </mxCell>
        <mxCell id="27TKcZGduy2nfsu9lEft-7" value="" style="edgeStyle=orthogonalEdgeStyle;rounded=0;orthogonalLoop=1;jettySize=auto;html=1;exitX=0.5;exitY=1;exitDx=0;exitDy=0;" edge="1" parent="1" source="27TKcZGduy2nfsu9lEft-4" target="27TKcZGduy2nfsu9lEft-6">
          <mxGeometry relative="1" as="geometry">
            <mxPoint x="414" y="230" as="sourcePoint" />
          </mxGeometry>
        </mxCell>
        <mxCell id="27TKcZGduy2nfsu9lEft-4" value="for(int i=1; i&amp;lt;=10; i++)" style="shape=hexagon;perimeter=hexagonPerimeter2;whiteSpace=wrap;html=1;fixedSize=1;" vertex="1" parent="1">
          <mxGeometry x="349" y="180" width="130" height="40" as="geometry" />
        </mxCell>
        <mxCell id="27TKcZGduy2nfsu9lEft-6" value="y=y+((x^i)/i)" style="rounded=0;whiteSpace=wrap;html=1;" vertex="1" parent="1">
          <mxGeometry x="374" y="254" width="80" height="30" as="geometry" />
        </mxCell>
        <mxCell id="27TKcZGduy2nfsu9lEft-8" value="" style="endArrow=none;html=1;rounded=0;" edge="1" parent="1">
          <mxGeometry width="50" height="50" relative="1" as="geometry">
            <mxPoint x="510" y="270" as="sourcePoint" />
            <mxPoint x="510" y="200" as="targetPoint" />
          </mxGeometry>
        </mxCell>
        <mxCell id="27TKcZGduy2nfsu9lEft-9" value="" style="endArrow=classic;html=1;rounded=0;exitX=1;exitY=0.5;exitDx=0;exitDy=0;" edge="1" parent="1" source="27TKcZGduy2nfsu9lEft-6">
          <mxGeometry width="50" height="50" relative="1" as="geometry">
            <mxPoint x="390" y="234" as="sourcePoint" />
            <mxPoint x="510" y="269" as="targetPoint" />
          </mxGeometry>
        </mxCell>
        <mxCell id="27TKcZGduy2nfsu9lEft-10" value="" style="endArrow=classic;html=1;rounded=0;" edge="1" parent="1">
          <mxGeometry width="50" height="50" relative="1" as="geometry">
            <mxPoint x="510" y="200" as="sourcePoint" />
            <mxPoint x="480" y="200" as="targetPoint" />
          </mxGeometry>
        </mxCell>
        <mxCell id="27TKcZGduy2nfsu9lEft-11" value="" style="endArrow=none;html=1;rounded=0;" edge="1" parent="1">
          <mxGeometry width="50" height="50" relative="1" as="geometry">
            <mxPoint x="320" y="320" as="sourcePoint" />
            <mxPoint x="320" y="200" as="targetPoint" />
          </mxGeometry>
        </mxCell>
        <mxCell id="27TKcZGduy2nfsu9lEft-14" value="" style="endArrow=classic;html=1;rounded=0;exitX=0;exitY=0.5;exitDx=0;exitDy=0;" edge="1" parent="1" source="27TKcZGduy2nfsu9lEft-4">
          <mxGeometry width="50" height="50" relative="1" as="geometry">
            <mxPoint x="390" y="220" as="sourcePoint" />
            <mxPoint x="320" y="200" as="targetPoint" />
          </mxGeometry>
        </mxCell>
        <mxCell id="27TKcZGduy2nfsu9lEft-15" value="" style="endArrow=none;html=1;rounded=0;" edge="1" parent="1">
          <mxGeometry width="50" height="50" relative="1" as="geometry">
            <mxPoint x="320" y="320" as="sourcePoint" />
            <mxPoint x="410" y="320" as="targetPoint" />
          </mxGeometry>
        </mxCell>
        <mxCell id="27TKcZGduy2nfsu9lEft-19" value="" style="edgeStyle=orthogonalEdgeStyle;rounded=0;orthogonalLoop=1;jettySize=auto;html=1;" edge="1" parent="1" source="27TKcZGduy2nfsu9lEft-16" target="27TKcZGduy2nfsu9lEft-18">
          <mxGeometry relative="1" as="geometry" />
        </mxCell>
        <mxCell id="27TKcZGduy2nfsu9lEft-16" value="Output y" style="shape=parallelogram;perimeter=parallelogramPerimeter;whiteSpace=wrap;html=1;fixedSize=1;" vertex="1" parent="1">
          <mxGeometry x="366" y="350" width="90" height="40" as="geometry" />
        </mxCell>
        <mxCell id="27TKcZGduy2nfsu9lEft-17" value="" style="endArrow=classic;html=1;rounded=0;entryX=0.5;entryY=0;entryDx=0;entryDy=0;" edge="1" parent="1" target="27TKcZGduy2nfsu9lEft-16">
          <mxGeometry width="50" height="50" relative="1" as="geometry">
            <mxPoint x="411" y="320" as="sourcePoint" />
            <mxPoint x="437" y="170" as="targetPoint" />
          </mxGeometry>
        </mxCell>
        <mxCell id="27TKcZGduy2nfsu9lEft-18" value="End" style="ellipse;whiteSpace=wrap;html=1;" vertex="1" parent="1">
          <mxGeometry x="351" y="420" width="120" height="40" as="geometry" />
        </mxCell>
        <mxCell id="27TKcZGduy2nfsu9lEft-20" value="True" style="text;html=1;strokeColor=none;fillColor=none;align=center;verticalAlign=middle;whiteSpace=wrap;rounded=0;" vertex="1" parent="1">
          <mxGeometry x="411" y="220" width="60" height="30" as="geometry" />
        </mxCell>
        <mxCell id="27TKcZGduy2nfsu9lEft-21" value="False" style="text;html=1;strokeColor=none;fillColor=none;align=center;verticalAlign=middle;whiteSpace=wrap;rounded=0;" vertex="1" parent="1">
          <mxGeometry x="306" y="170" width="60" height="30" as="geometry" />
        </mxCell>
      </root>
    </mxGraphModel>
  </diagram>
</mxfile>
